<svg xmlns="http://www.w3.org/2000/svg" version="1.1" xmlns:xlink="http://www.w3.org/1999/xlink"
    xmlns:svgjs="http://svgjs.dev/svgjs" width="1500" height="1682" viewBox="0 0 1500 1682">
    <g transform="matrix(1,0,0,1,-2.334725192482324,0)"><svg viewBox="0 0 321 360" data-background-color="#c8f7dd"
            preserveAspectRatio="xMidYMid meet" height="1682" width="1500" xmlns="http://www.w3.org/2000/svg"
            xmlns:xlink="http://www.w3.org/1999/xlink">
            <g id="tight-bounds" transform="matrix(1,0,0,1,0.5,0)"><svg viewBox="0 0 320 360" height="450" width="330">
                    <rect width="320.0003688088088" height="360" fill="url(#3d7ed437-a04a-4c83-9e5d-dfb9fe506834)"
                        mask="url(#6993d533-fe08-4817-9eb5-35b8a16babbc)" data-fill-palette-color="tertiary"></rect>
                    <g><svg></svg></g>
                    <g><svg viewBox="0 0 320 360" height="360" width="320">
                            <g>
                                <path
                                    d="M294.684 112.125c-8.775-10.699-25.381-16.201-43-22.006-7.56-2.498-15.357-5.097-22.985-8.235-7.695-3.173-15.256-7.257-22.613-11.172-14.952-8.033-30.41-16.336-46.105-16.336-15.661 0-31.119 8.303-46.071 16.336-7.358 3.949-14.952 8.033-22.648 11.205-7.594 3.139-15.425 5.704-22.985 8.236-17.618 5.839-34.224 11.341-42.999 22.006-11.712 14.277-11.442 35.439-11.172 57.817 0.034 3.375 0.068 6.717 0.067 10.024 0 3.308-0.034 6.649-0.101 10.024-0.27 22.411-0.54 43.54 11.172 57.851 8.775 10.666 25.381 16.167 42.966 22.006 7.56 2.498 15.357 5.097 23.019 8.235 7.695 3.173 15.256 7.223 22.579 11.172 14.986 8.067 30.444 16.37 46.105 16.37 15.695 0 31.153-8.303 46.105-16.336 7.358-3.949 14.918-8.033 22.614-11.172 7.594-3.139 15.357-5.704 22.884-8.202 17.72-5.873 34.326-11.374 43.101-22.039 11.712-14.277 11.442-35.439 11.171-57.817-0.034-3.409-0.101-6.75-0.101-10.058 0-3.308 0.034-6.649 0.101-9.991 0.371-22.479 0.641-43.641-11.104-57.918zM305.552 103.215c-15.728-19.171-45.801-23.727-71.486-34.326-22.985-9.45-46.375-28.588-74.051-28.587-27.676 0-51.066 19.137-74.052 28.587-25.719 10.598-55.758 15.155-71.486 34.326-17.078 20.791-14.311 50.121-14.311 76.785 0 26.63-2.768 55.994 14.277 76.785 15.728 19.171 45.801 23.727 71.487 34.326 22.985 9.484 46.375 28.588 74.051 28.587 27.676 0 51.066-19.103 74.051-28.587 25.719-10.598 55.758-15.155 71.486-34.326 17.045-20.791 14.277-50.121 14.277-76.785 0.068-26.664 2.835-55.994-14.243-76.785zM309.872 189.923c0.304 23.221 0.574 45.059-12.083 60.483-9.518 11.577-26.664 17.281-44.822 23.289-7.56 2.498-15.29 5.063-22.715 8.134-7.493 3.071-14.952 7.088-22.175 10.969-15.458 8.303-31.355 16.842-48.062 16.842-16.707 0-32.604-8.539-47.995-16.808-7.257-3.915-14.75-7.932-22.243-11.003-7.527-3.105-15.256-5.67-22.748-8.134-18.192-6.008-35.338-11.712-44.823-23.289-12.623-15.391-12.353-37.262-12.083-60.415 0.034-3.375 0.101-6.683 0.101-9.991 0-3.308-0.034-6.615-0.067-9.991-0.304-23.154-0.574-45.025 12.083-60.415 9.518-11.577 26.664-17.247 44.822-23.289 7.527-2.498 15.256-5.063 22.749-8.134 7.493-3.105 14.986-7.122 22.242-11.003 15.391-8.269 31.322-16.842 47.995-16.842 16.673 0 32.604 8.539 47.995 16.808 7.257 3.915 14.75 7.932 22.243 11.003 7.493 3.105 15.256 5.637 22.715 8.134 18.158 6.008 35.338 11.712 44.822 23.289 12.657 15.425 12.387 37.262 12.083 60.416-0.034 3.409-0.101 6.717-0.101 9.99 0 3.308 0.034 6.615 0.067 9.957z"
                                    fill="url(#3d7ed437-a04a-4c83-9e5d-dfb9fe506834)" fill-rule="nonzero" stroke="none"
                                    stroke-width="1" stroke-linecap="butt" stroke-linejoin="miter"
                                    stroke-miterlimit="10" stroke-dasharray="" stroke-dashoffset="0" font-family="none"
                                    font-weight="none" font-size="none" text-anchor="none"
                                    style="mix-blend-mode: normal" data-fill-palette-color="tertiary"></path>
                            </g>
                            <g transform="matrix(1,0,0,1,92.74934036939314,108)"><svg
                                    viewBox="0 0 134.50131926121372 144" height="144" width="134.50131926121372">
                                    <g><svg viewBox="0 0 134.50131926121372 144" height="144"
                                            width="134.50131926121372">
                                            <g><svg viewBox="0 0 134.50131926121372 144" height="144"
                                                    width="134.50131926121372">
                                                    <g id="textblocktransform"><svg viewBox="0 0 134.50131926121372 144"
                                                            height="144" width="134.50131926121372" id="textblock">
                                                            <g><svg viewBox="0 0 134.50131926121372 144" height="144"
                                                                    width="134.50131926121372">
                                                                    <g transform="matrix(1,0,0,1,0,0)"><svg
                                                                            width="134.50131926121372"
                                                                            viewBox="2.54 -36.43 34.57 37.02"
                                                                            height="144" data-palette-color="#ffffff">
                                                                            <path
                                                                                d="M2.54-3.32L2.54-3.32 2.54-35.84Q2.54-36.01 2.7-36.13 2.86-36.25 3.2-36.3 3.54-36.35 3.8-36.38 4.05-36.4 4.53-36.41 5-36.43 5.18-36.43L5.18-36.43 25-36.43Q27.44-36.43 29.61-35.66 31.79-34.89 33.47-33.42 35.16-31.96 36.13-29.64 37.11-27.32 37.11-24.41L37.11-24.41Q37.11-22.27 36.61-20.48 36.11-18.7 35.29-17.44 34.47-16.19 33.29-15.19 32.1-14.18 30.87-13.57 29.64-12.96 28.15-12.54 26.66-12.11 25.4-11.91 24.15-11.72 22.75-11.62L22.75-11.62 18.07-11.62Q17.87-7.79 17.87-3.03L17.87-3.03 17.87-0.29Q17.8 0.59 17.04 0.59L17.04 0.59 3.17 0.59Q2.54-1.1 2.54-3.32ZM16.31-20.41L16.31-20.41 17.09-19.34Q18.09-19.34 19.01-19.48 19.92-19.63 20.8-20 21.68-20.36 22.31-20.94 22.95-21.51 23.34-22.4 23.73-23.29 23.73-24.41L23.73-24.41Q23.73-25.27 23.5-25.94 23.27-26.61 22.94-27.04 22.61-27.47 22.03-27.78 21.46-28.1 20.96-28.26 20.46-28.42 19.69-28.5 18.92-28.59 18.42-28.6 17.92-28.61 17.14-28.61L17.14-28.61Q16.31-28.22 16.31-20.41Z"
                                                                                opacity="1"
                                                                                transform="matrix(1,0,0,1,0,0)"
                                                                                fill="#ffffff" class="wordmark-text-0"
                                                                                data-fill-palette-color="quaternary"
                                                                                id="text-0"></path>
                                                                        </svg></g>
                                                                </svg></g>
                                                        </svg></g>
                                                </svg></g>
                                        </svg></g>
                                </svg></g>
                        </svg></g>
                    <defs></defs>
                    <mask id="6993d533-fe08-4817-9eb5-35b8a16babbc">
                        <g id="SvgjsG4534"><svg viewBox="0 0 320 360" height="360" width="320">
                                <g><svg></svg></g>
                                <g><svg viewBox="0 0 320 360" height="360" width="320">
                                        <g>
                                            <path
                                                d="M294.684 112.125c-8.775-10.699-25.381-16.201-43-22.006-7.56-2.498-15.357-5.097-22.985-8.235-7.695-3.173-15.256-7.257-22.613-11.172-14.952-8.033-30.41-16.336-46.105-16.336-15.661 0-31.119 8.303-46.071 16.336-7.358 3.949-14.952 8.033-22.648 11.205-7.594 3.139-15.425 5.704-22.985 8.236-17.618 5.839-34.224 11.341-42.999 22.006-11.712 14.277-11.442 35.439-11.172 57.817 0.034 3.375 0.068 6.717 0.067 10.024 0 3.308-0.034 6.649-0.101 10.024-0.27 22.411-0.54 43.54 11.172 57.851 8.775 10.666 25.381 16.167 42.966 22.006 7.56 2.498 15.357 5.097 23.019 8.235 7.695 3.173 15.256 7.223 22.579 11.172 14.986 8.067 30.444 16.37 46.105 16.37 15.695 0 31.153-8.303 46.105-16.336 7.358-3.949 14.918-8.033 22.614-11.172 7.594-3.139 15.357-5.704 22.884-8.202 17.72-5.873 34.326-11.374 43.101-22.039 11.712-14.277 11.442-35.439 11.171-57.817-0.034-3.409-0.101-6.75-0.101-10.058 0-3.308 0.034-6.649 0.101-9.991 0.371-22.479 0.641-43.641-11.104-57.918zM305.552 103.215c-15.728-19.171-45.801-23.727-71.486-34.326-22.985-9.45-46.375-28.588-74.051-28.587-27.676 0-51.066 19.137-74.052 28.587-25.719 10.598-55.758 15.155-71.486 34.326-17.078 20.791-14.311 50.121-14.311 76.785 0 26.63-2.768 55.994 14.277 76.785 15.728 19.171 45.801 23.727 71.487 34.326 22.985 9.484 46.375 28.588 74.051 28.587 27.676 0 51.066-19.103 74.051-28.587 25.719-10.598 55.758-15.155 71.486-34.326 17.045-20.791 14.277-50.121 14.277-76.785 0.068-26.664 2.835-55.994-14.243-76.785zM309.872 189.923c0.304 23.221 0.574 45.059-12.083 60.483-9.518 11.577-26.664 17.281-44.822 23.289-7.56 2.498-15.29 5.063-22.715 8.134-7.493 3.071-14.952 7.088-22.175 10.969-15.458 8.303-31.355 16.842-48.062 16.842-16.707 0-32.604-8.539-47.995-16.808-7.257-3.915-14.75-7.932-22.243-11.003-7.527-3.105-15.256-5.67-22.748-8.134-18.192-6.008-35.338-11.712-44.823-23.289-12.623-15.391-12.353-37.262-12.083-60.415 0.034-3.375 0.101-6.683 0.101-9.991 0-3.308-0.034-6.615-0.067-9.991-0.304-23.154-0.574-45.025 12.083-60.415 9.518-11.577 26.664-17.247 44.822-23.289 7.527-2.498 15.256-5.063 22.749-8.134 7.493-3.105 14.986-7.122 22.242-11.003 15.391-8.269 31.322-16.842 47.995-16.842 16.673 0 32.604 8.539 47.995 16.808 7.257 3.915 14.75 7.932 22.243 11.003 7.493 3.105 15.256 5.637 22.715 8.134 18.158 6.008 35.338 11.712 44.822 23.289 12.657 15.425 12.387 37.262 12.083 60.416-0.034 3.409-0.101 6.717-0.101 9.99 0 3.308 0.034 6.615 0.067 9.957z"
                                                fill="white" fill-rule="nonzero" stroke="none" stroke-width="1"
                                                stroke-linecap="butt" stroke-linejoin="miter" stroke-miterlimit="10"
                                                stroke-dasharray="" stroke-dashoffset="0" font-family="none"
                                                font-weight="none" font-size="none" text-anchor="none"
                                                style="mix-blend-mode: normal"></path>
                                        </g>
                                        <g transform="matrix(1,0,0,1,92.74934036939314,108)"><svg
                                                viewBox="0 0 134.50131926121372 144" height="144"
                                                width="134.50131926121372">
                                                <g><svg viewBox="0 0 134.50131926121372 144" height="144"
                                                        width="134.50131926121372">
                                                        <g><svg viewBox="0 0 134.50131926121372 144" height="144"
                                                                width="134.50131926121372">
                                                                <g id="SvgjsG4533"><svg
                                                                        viewBox="0 0 134.50131926121372 144"
                                                                        height="144" width="134.50131926121372"
                                                                        id="SvgjsSvg4532">
                                                                        <g><svg viewBox="0 0 134.50131926121372 144"
                                                                                height="144" width="134.50131926121372">
                                                                                <g transform="matrix(1,0,0,1,0,0)"><svg
                                                                                        width="134.50131926121372"
                                                                                        viewBox="2.54 -36.43 34.57 37.02"
                                                                                        height="144"
                                                                                        data-palette-color="#ffffff">
                                                                                        <path
                                                                                            d="M2.54-3.32L2.54-3.32 2.54-35.84Q2.54-36.01 2.7-36.13 2.86-36.25 3.2-36.3 3.54-36.35 3.8-36.38 4.05-36.4 4.53-36.41 5-36.43 5.18-36.43L5.18-36.43 25-36.43Q27.44-36.43 29.61-35.66 31.79-34.89 33.47-33.42 35.16-31.96 36.13-29.64 37.11-27.32 37.11-24.41L37.11-24.41Q37.11-22.27 36.61-20.48 36.11-18.7 35.29-17.44 34.47-16.19 33.29-15.19 32.1-14.18 30.87-13.57 29.64-12.96 28.15-12.54 26.66-12.11 25.4-11.91 24.15-11.72 22.75-11.62L22.75-11.62 18.07-11.62Q17.87-7.79 17.87-3.03L17.87-3.03 17.87-0.29Q17.8 0.59 17.04 0.59L17.04 0.59 3.17 0.59Q2.54-1.1 2.54-3.32ZM16.31-20.41L16.31-20.41 17.09-19.34Q18.09-19.34 19.01-19.48 19.92-19.63 20.8-20 21.68-20.36 22.31-20.94 22.95-21.51 23.34-22.4 23.73-23.29 23.73-24.41L23.73-24.41Q23.73-25.27 23.5-25.94 23.27-26.61 22.94-27.04 22.61-27.47 22.03-27.78 21.46-28.1 20.96-28.26 20.46-28.42 19.69-28.5 18.92-28.59 18.42-28.6 17.92-28.61 17.14-28.61L17.14-28.61Q16.31-28.22 16.31-20.41Z"
                                                                                            opacity="1"
                                                                                            transform="matrix(1,0,0,1,0,0)"
                                                                                            fill="black"
                                                                                            class="wordmark-text-0"
                                                                                            id="SvgjsPath4531"></path>
                                                                                    </svg></g>
                                                                            </svg></g>
                                                                    </svg></g>
                                                            </svg></g>
                                                    </svg></g>
                                            </svg></g>
                                    </svg></g>
                                <defs>
                                    <mask></mask>
                                </defs>
                            </svg>
                            <rect width="320" height="360" fill="black" stroke="none" visibility="hidden"></rect>
                        </g>
                    </mask>
                    <linearGradient x1="0" x2="1" y1="0.5" y2="0.5" id="3d7ed437-a04a-4c83-9e5d-dfb9fe506834">
                        <stop stop-color="#ffa62e" offset="0"></stop>
                        <stop stop-color="#f71b3d" offset="1"></stop>
                    </linearGradient>
                </svg>
                <rect width="320" height="360" fill="none" stroke="none" visibility="hidden"></rect>
            </g>
        </svg></g>
</svg>